<!-- Generated by IcoMoon.io -->
<svg version="1.1" xmlns="http://www.w3.org/2000/svg" width="15" height="15" viewBox="0 0 32 32">
<title>envelope</title>
<path fill="#999" d="M28.093 3.823h-24.18c-2.158 0-3.913 1.755-3.913 3.913v16.526c0 2.159 1.755 3.913 3.913 3.913h24.174c2.159 0 3.913-1.755 3.913-3.913v-16.52c0.007-2.159-1.748-3.92-3.907-3.92zM30.219 24.263c0 1.172-0.953 2.125-2.125 2.125h-24.18c-1.172 0-2.125-0.953-2.125-2.125v-16.52c0-1.172 0.953-2.125 2.125-2.125h24.174c1.172 0 2.125 0.953 2.125 2.125v16.52h0.007z"></path>
<path fill="#999" d="M20.181 15.795l7.826-7.018c0.364-0.331 0.397-0.894 0.066-1.265-0.331-0.364-0.894-0.397-1.265-0.066l-10.792 9.687-2.105-1.88c-0.007-0.007-0.013-0.013-0.013-0.020-0.046-0.046-0.093-0.086-0.146-0.126l-8.568-7.667c-0.371-0.331-0.934-0.298-1.265 0.073s-0.298 0.934 0.073 1.265l7.919 7.078-7.886 7.383c-0.358 0.338-0.377 0.9-0.040 1.265 0.179 0.185 0.417 0.285 0.656 0.285 0.218 0 0.437-0.080 0.609-0.238l8.005-7.488 2.172 1.94c0.172 0.152 0.384 0.225 0.596 0.225s0.43-0.079 0.596-0.232l2.231-2 7.959 7.561c0.172 0.165 0.397 0.245 0.616 0.245 0.238 0 0.47-0.093 0.649-0.278 0.338-0.358 0.324-0.927-0.033-1.265l-7.859-7.462z"></path>
</svg>
