<!-- Generated by IcoMoon.io -->
<svg version="1.1" xmlns="http://www.w3.org/2000/svg" width="50" height="50" viewBox="0 0 32 32">
<title>svg1</title>
<path fill="#4985ff" d="M21.624 10.182h-8.727c-0.107 0-0.194 0.087-0.194 0.194v2.909h0.388v-2.715h8.339v10.667c0.002 0.102-0.077 0.187-0.179 0.194-0.017 0-0.033-0.001-0.050-0.002-0.034-0.001-0.069-0.002-0.102-0.005-0.003 0-0.006 0-0.009-0.001-0.633-0.069-1.134-0.569-1.204-1.202 0-0.003-0.001-0.006-0.001-0.008-0.005-0.046-0.007-0.092-0.007-0.139v-0.388c0-0.107-0.087-0.194-0.194-0.194h-6.594v-3.491h-0.388v3.491h-1.552c-0.107 0-0.194 0.087-0.194 0.194v0.388c0.001 0.964 0.782 1.744 1.745 1.745h8.553c0.315-0.008 0.565-0.267 0.562-0.582v-10.861c0-0.107-0.087-0.194-0.194-0.194zM12.703 21.43c-0.749-0.001-1.357-0.608-1.358-1.358v-0.194h8.145v0.194c0 0.064 0.004 0.128 0.011 0.191 0.002 0.017 0.005 0.033 0.007 0.050 0.006 0.047 0.014 0.094 0.024 0.14 0.003 0.016 0.008 0.032 0.012 0.048 0.012 0.047 0.025 0.093 0.041 0.138 0.004 0.013 0.009 0.026 0.014 0.039 0.018 0.048 0.038 0.095 0.060 0.141 0.005 0.009 0.009 0.019 0.014 0.028 0.024 0.049 0.051 0.097 0.080 0.143 0.004 0.006 0.007 0.013 0.011 0.019 0.032 0.049 0.066 0.097 0.102 0.143l0.006 0.008c0.042 0.053 0.088 0.104 0.136 0.152 0.042 0.041 0.085 0.080 0.13 0.116l-7.436-0.001z"></path>
<path fill="#4985ff" d="M16.582 15.612c0.051 0 0.101-0.020 0.137-0.057l0.776-0.776c0.076-0.076 0.076-0.199 0-0.274l-0.776-0.776c-0.036-0.036-0.086-0.057-0.137-0.057h-5.43c-0.536 0-0.97 0.434-0.97 0.97s0.434 0.97 0.97 0.97h5.43zM16.532 14.091l0.552 0.552-0.552 0.552-0.138-0.552 0.138-0.552zM11.733 14.061h4.406l-0.097 0.388h-3.921v0.388h3.921l0.097 0.388h-4.406v-1.164zM10.57 14.642c0-0.321 0.26-0.582 0.582-0.582h0.194v1.164h-0.194c-0.321 0-0.582-0.26-0.582-0.582z"></path>
<path fill="#4985ff" d="M14.642 18.521h5.818c0.107 0 0.194-0.087 0.194-0.194v-5.818c-0-0.107-0.087-0.194-0.194-0.194-0.051 0-0.101 0.020-0.137 0.057l-5.818 5.818c-0.076 0.076-0.076 0.199 0 0.274 0.036 0.036 0.086 0.057 0.137 0.057zM20.266 12.977v0.502h-0.388v0.388h0.388v0.388h-0.388v0.388h0.388v0.388h-0.388v0.388h0.388v0.388h-0.388v0.388h0.388v0.388h-0.388v0.388h0.388v0.388h-0.388v0.388h0.388v0.388h-0.388v-0.388h-0.388v0.388h-0.388v-0.388h-0.388v0.388h-0.388v-0.388h-0.388v0.388h-0.388v-0.388h-0.388v0.388h-0.388v-0.388h-0.388v0.388h-0.388v-0.388h-0.388v0.388h-0.502l5.156-5.156z"></path>
<path fill="#4985ff" d="M17.452 17.358h1.845c0.107 0 0.194-0.087 0.194-0.194v-1.845c0-0.107-0.087-0.194-0.194-0.194-0.051 0-0.101 0.020-0.137 0.057l-1.845 1.845c-0.076 0.076-0.076 0.199 0 0.274 0.036 0.036 0.086 0.057 0.137 0.057zM19.103 15.787v1.183h-1.183l1.183-1.183z"></path>
<path fill="#4985ff" d="M19.103 11.345h-3.879v0.388h3.879v-0.388z"></path>
<path fill="#4985ff" d="M19.685 12.121h-5.042v0.388h5.042v-0.388z"></path>
<path fill="#4985ff" d="M14.643 16.194h-1.164v0.388h1.164v-0.388z"></path>
<path fill="#4985ff" d="M14.255 16.97h-0.776v0.388h0.776v-0.388z"></path>
</svg>
