<svg width="104" height="37" viewBox="0 0 104 37" fill="none" xmlns="http://www.w3.org/2000/svg">
<path d="M58.856 9.8V35H56.264V12.104H50.324V9.8H58.856ZM82.0878 32.696V35H64.4118V33.164L74.8878 22.904C76.2078 21.608 77.0958 20.492 77.5518 19.556C78.0318 18.596 78.2718 17.636 78.2718 16.676C78.2718 15.188 77.7558 14.036 76.7238 13.22C75.7158 12.38 74.2638 11.96 72.3678 11.96C69.4158 11.96 67.1238 12.896 65.4918 14.768L63.6558 13.184C64.6398 12.032 65.8878 11.144 67.3998 10.52C68.9358 9.896 70.6638 9.584 72.5838 9.584C75.1518 9.584 77.1798 10.196 78.6678 11.42C80.1798 12.62 80.9358 14.276 80.9358 16.388C80.9358 17.684 80.6478 18.932 80.0718 20.132C79.4958 21.332 78.4038 22.712 76.7958 24.272L68.2278 32.696H82.0878ZM91.9648 20.132C95.6128 20.132 98.2648 20.792 99.9208 22.112C101.601 23.408 102.441 25.232 102.441 27.584C102.441 29.048 102.093 30.356 101.397 31.508C100.725 32.66 99.7048 33.572 98.3368 34.244C96.9688 34.892 95.2888 35.216 93.2968 35.216C91.4968 35.216 89.7808 34.928 88.1488 34.352C86.5408 33.752 85.2448 32.96 84.2608 31.976L85.5208 29.924C86.3608 30.788 87.4648 31.496 88.8328 32.048C90.2008 32.576 91.6768 32.84 93.2608 32.84C95.3488 32.84 96.9568 32.372 98.0848 31.436C99.2368 30.5 99.8128 29.252 99.8128 27.692C99.8128 25.964 99.1648 24.656 97.8688 23.768C96.5968 22.88 94.4368 22.436 91.3888 22.436H86.0248L87.3208 9.8H101.109V12.104H89.5888L88.7248 20.132H91.9648Z" fill="black"/>
<path d="M11.8364 28.0235C11.7231 28.0235 11.609 27.9845 11.5158 27.9052L8.31084 25.1762C8.20029 25.082 8.13672 24.9443 8.13672 24.799C8.13672 24.6539 8.20056 24.5162 8.31084 24.422L11.5158 21.693C11.7239 21.5155 12.0365 21.5407 12.214 21.7488C12.3911 21.9572 12.3663 22.2698 12.1579 22.4469L9.39594 24.799L12.1579 27.151C12.3663 27.3284 12.3911 27.641 12.214 27.8491C12.1159 27.9644 11.9766 28.0235 11.8364 28.0235Z" fill="#4985FF"/>
<path d="M18.1635 28.0235C18.0234 28.0235 17.8841 27.9644 17.7862 27.8491C17.6088 27.641 17.6339 27.3284 17.8421 27.151L20.604 24.799L17.8421 22.4469C17.6339 22.2698 17.6088 21.9572 17.7862 21.7488C17.9634 21.5407 18.2763 21.5155 18.4841 21.693L21.6891 24.422C21.7996 24.5162 21.8632 24.6539 21.8632 24.799C21.8632 24.9443 21.7996 25.082 21.6891 25.1762L18.4841 27.9052C18.391 27.9845 18.2768 28.0235 18.1635 28.0235Z" fill="#4985FF"/>
<path d="M13.8652 30.0706C13.8312 30.0706 13.7969 30.067 13.7624 30.0598C13.4949 30.0034 13.3235 29.7406 13.3799 29.473L15.3773 19.9894C15.4337 19.7219 15.6963 19.5505 15.9641 19.6069C16.2317 19.6633 16.403 19.9259 16.3466 20.1937L14.3492 29.6773C14.3 29.9105 14.0943 30.0706 13.8652 30.0706Z" fill="#4985FF"/>
<path d="M26.6745 35.2374H3.32547C1.49193 35.2374 0 33.7457 0 31.9119V12.0945C0 10.261 1.49193 8.76904 3.32547 8.76904H26.6745C28.5081 8.76904 30 10.261 30 12.0945V31.9119C30 33.7457 28.5081 35.2374 26.6745 35.2374ZM3.32547 9.75961C2.03807 9.75961 0.990566 10.8071 0.990566 12.0945V31.9119C0.990566 33.1993 2.03807 34.2468 3.32547 34.2468H26.6745C27.9619 34.2468 29.0094 33.1993 29.0094 31.9119V12.0945C29.0094 10.8071 27.9619 9.75961 26.6745 9.75961H3.32547Z" fill="#4985FF"/>
<path d="M29.5047 16.6996H0.495283C0.221661 16.6996 0 16.4779 0 16.2043C0 15.9309 0.221661 15.709 0.495283 15.709H29.5047C29.7783 15.709 30 15.9309 30 16.2043C30 16.4779 29.7783 16.6996 29.5047 16.6996Z" fill="#4985FF"/>
<path d="M8.46191 14.3296C7.59793 14.3296 6.89453 13.6262 6.89453 12.7622C6.89453 11.8979 7.59793 11.1948 8.46191 11.1948C9.32617 11.1948 10.0293 11.8979 10.0293 12.7622C10.0293 13.6262 9.32617 14.3296 8.46191 14.3296ZM8.46191 12.1854C8.14407 12.1854 7.8851 12.4441 7.8851 12.7622C7.8851 13.0803 8.14407 13.339 8.46191 13.339C8.78003 13.339 9.03873 13.0803 9.03873 12.7622C9.03873 12.4441 8.78003 12.1854 8.46191 12.1854Z" fill="#4985FF"/>
<path d="M3.64746 14.3145C2.7832 14.3145 2.08008 13.6113 2.08008 12.7471C2.08008 11.8828 2.7832 11.1797 3.64746 11.1797C4.51171 11.1797 5.21484 11.8828 5.21484 12.7471C5.21484 13.6113 4.51171 14.3145 3.64746 14.3145ZM3.64746 12.1703C3.32962 12.1703 3.07064 12.4292 3.07064 12.7471C3.07064 13.0652 3.32962 13.3239 3.64746 13.3239C3.96558 13.3239 4.22427 13.0652 4.22427 12.7471C4.22427 12.4292 3.96558 12.1703 3.64746 12.1703Z" fill="#4985FF"/>
<path d="M13.278 14.3445C12.4141 14.3445 11.7109 13.6413 11.7109 12.7771C11.7109 11.9131 12.4141 11.21 13.278 11.21C14.1423 11.21 14.8454 11.9131 14.8454 12.7771C14.8454 13.6413 14.1423 14.3445 13.278 14.3445ZM13.278 12.2003C12.9602 12.2003 12.7015 12.4589 12.7015 12.7771C12.7015 13.0952 12.9602 13.3539 13.278 13.3539C13.5962 13.3539 13.8549 13.0952 13.8549 12.7771C13.8549 12.4589 13.5962 12.2003 13.278 12.2003Z" fill="#4985FF"/>
</svg>
